<svg version="1.1" xmlns="http://www.w3.org/2000/svg" xmlns:xlink="http://www.w3.org/1999/xlink" width="429.92793" height="335.80888" viewBox="0,0,429.92793,335.80888"><g transform="translate(-25.03604,-12.09556)"><g data-paper-data="{&quot;isPaintingLayer&quot;:true}" fill-rule="nonzero" stroke-linecap="butt" stroke-linejoin="miter" stroke-miterlimit="10" stroke-dasharray="" stroke-dashoffset="0" style="mix-blend-mode: normal"><path d="M26.03605,346.90444v-333.80888h427.92793v333.80888z" fill="#000d40" stroke="#000000" stroke-width="2"/><g fill="#dadada" stroke="none" stroke-width="0.5"><path d="M82.50873,57.22693c0,-0.69239 0.56128,-1.25367 1.25366,-1.25367c0.69239,0 1.25367,0.56128 1.25367,1.25367c0,0.69239 -0.56128,1.25366 -1.25367,1.25366c-0.69239,0 -1.25366,-0.56128 -1.25366,-1.25366z"/><path d="M64.93984,136.28692c0,-0.69237 0.56129,-1.25366 1.25366,-1.25366c0.69239,0 1.25366,0.56129 1.25366,1.25366c0,0.69237 -0.56128,1.25367 -1.25366,1.25367c-0.69237,0 -1.25366,-0.56128 -1.25366,-1.25367z"/><path d="M46.11602,186.48374c0,-0.69239 0.5613,-1.25367 1.25367,-1.25367c0.69237,0 1.25367,0.56128 1.25367,1.25367c0,0.69239 -0.56129,1.25366 -1.25367,1.25366c-0.69237,0 -1.25367,-0.56128 -1.25367,-1.25366z"/><path d="M147.76461,240.44533c0,-0.69239 0.56128,-1.25367 1.25367,-1.25367c0.69239,0 1.25367,0.56128 1.25367,1.25367c0,0.69239 -0.56128,1.25367 -1.25367,1.25367c-0.69239,0 -1.25367,-0.56128 -1.25367,-1.25367z"/><path d="M77.48905,299.4266c0,-0.69238 0.56128,-1.25367 1.25366,-1.25367c0.69239,0 1.25366,0.56129 1.25366,1.25367c0,0.69238 -0.56128,1.25367 -1.25366,1.25367c-0.69239,0 -1.25366,-0.56129 -1.25366,-1.25367z"/><path d="M97.56777,231.66089c0,-0.69239 0.56129,-1.25366 1.25366,-1.25366c0.69237,0 1.25366,0.56128 1.25366,1.25366c0,0.69239 -0.56129,1.25367 -1.25366,1.25367c-0.69237,0 -1.25366,-0.56128 -1.25366,-1.25367z"/><path d="M123.92113,177.6993c0,-0.69239 0.5613,-1.25367 1.25367,-1.25367c0.69237,0 1.25366,0.56128 1.25366,1.25367c0,0.69239 -0.56129,1.25367 -1.25366,1.25367c-0.69237,0 -1.25367,-0.56128 -1.25367,-1.25367z"/><path d="M102.58746,145.07136c0,-0.69239 0.56129,-1.25367 1.25366,-1.25367c0.69237,0 1.25367,0.56128 1.25367,1.25367c0,0.69239 -0.5613,1.25367 -1.25367,1.25367c-0.69237,0 -1.25366,-0.56128 -1.25366,-1.25367z"/><path d="M48.62587,78.56058c0,-0.69239 0.56129,-1.25366 1.25367,-1.25366c0.69237,0 1.25366,0.56128 1.25366,1.25366c0,0.69239 -0.56129,1.25367 -1.25366,1.25367c-0.69237,0 -1.25367,-0.56128 -1.25367,-1.25367z"/><path d="M107.60714,63.50153c0,-0.69239 0.5613,-1.25367 1.25367,-1.25367c0.69237,0 1.25366,0.56128 1.25366,1.25367c0,0.69239 -0.56129,1.25366 -1.25366,1.25366c-0.69237,0 -1.25367,-0.56128 -1.25367,-1.25366z"/><path d="M98.82269,96.12947c0,-0.69237 0.56129,-1.25366 1.25366,-1.25366c0.69237,0 1.25366,0.56129 1.25366,1.25366c0,0.69237 -0.56129,1.25366 -1.25366,1.25366c-0.69237,0 -1.25366,-0.56129 -1.25366,-1.25366z"/><path d="M180.39255,161.38533c0,-0.69239 0.56128,-1.25367 1.25367,-1.25367c0.69239,0 1.25366,0.56128 1.25366,1.25367c0,0.69239 -0.56128,1.25366 -1.25366,1.25366c-0.69239,0 -1.25367,-0.56128 -1.25367,-1.25366z"/><path d="M177.8827,281.85772c0,-0.69238 0.56128,-1.25367 1.25366,-1.25367c0.69239,0 1.25367,0.56129 1.25367,1.25367c0,0.69238 -0.56128,1.25367 -1.25367,1.25367c-0.69239,0 -1.25366,-0.56129 -1.25366,-1.25367z"/><path d="M142.74494,296.91676c0,-0.69238 0.56129,-1.25367 1.25367,-1.25367c0.69237,0 1.25366,0.56129 1.25366,1.25367c0,0.69238 -0.56129,1.25367 -1.25366,1.25367c-0.69237,0 -1.25367,-0.56129 -1.25367,-1.25367z"/><path d="M54.90047,244.21009c0,-0.69239 0.56129,-1.25367 1.25366,-1.25367c0.69237,0 1.25366,0.56129 1.25366,1.25367c0,0.69237 -0.56129,1.25366 -1.25366,1.25366c-0.69237,0 -1.25366,-0.56129 -1.25366,-1.25366z"/><path d="M107.60714,316.99549c0,-0.69238 0.5613,-1.25367 1.25367,-1.25367c0.69237,0 1.25366,0.56129 1.25366,1.25367c0,0.69238 -0.56129,1.25366 -1.25366,1.25366c-0.69237,0 -1.25367,-0.56129 -1.25367,-1.25366z"/><path d="M112.62684,269.30851c0,-0.69238 0.56129,-1.25367 1.25366,-1.25367c0.69237,0 1.25367,0.56129 1.25367,1.25367c0,0.69238 -0.5613,1.25366 -1.25367,1.25366c-0.69237,0 -1.25366,-0.56129 -1.25366,-1.25366z"/><path d="M172.86301,313.23073c0,-0.69238 0.56128,-1.25367 1.25367,-1.25367c0.69239,0 1.25366,0.56129 1.25366,1.25367c0,0.69238 -0.56128,1.25367 -1.25366,1.25367c-0.69239,0 -1.25367,-0.56129 -1.25367,-1.25367z"/><path d="M285.80589,310.72089c0,-0.69238 0.56129,-1.25367 1.25367,-1.25367c0.69238,0 1.25366,0.56129 1.25366,1.25367c0,0.69238 -0.56129,1.25367 -1.25366,1.25367c-0.69238,0 -1.25367,-0.56129 -1.25367,-1.25367z"/><path d="M216.78524,311.97581c0,-0.69238 0.56128,-1.25367 1.25367,-1.25367c0.69239,0 1.25366,0.56129 1.25366,1.25367c0,0.69238 -0.56128,1.25366 -1.25366,1.25366c-0.69239,0 -1.25367,-0.56129 -1.25367,-1.25366z"/><path d="M315.92395,309.46597c0,-0.69238 0.56129,-1.25366 1.25367,-1.25366c0.69238,0 1.25367,0.56129 1.25367,1.25366c0,0.69238 -0.56129,1.25367 -1.25367,1.25367c-0.69238,0 -1.25367,-0.56129 -1.25367,-1.25367z"/><path d="M376.16017,311.97581c0,-0.69238 0.56129,-1.25367 1.25366,-1.25367c0.69238,0 1.25367,0.56129 1.25367,1.25367c0,0.69238 -0.56129,1.25366 -1.25367,1.25366c-0.69238,0 -1.25366,-0.56129 -1.25366,-1.25366z"/><path d="M405.02334,306.95613c0,-0.69238 0.56129,-1.25367 1.25367,-1.25367c0.69238,0 1.25367,0.56129 1.25367,1.25367c0,0.69238 -0.56129,1.25367 -1.25367,1.25367c-0.69238,0 -1.25367,-0.56129 -1.25367,-1.25367z"/><path d="M411.29794,279.34788c0,-0.69238 0.56129,-1.25367 1.25366,-1.25367c0.69238,0 1.25367,0.56129 1.25367,1.25367c0,0.69238 -0.56129,1.25367 -1.25367,1.25367c-0.69238,0 -1.25366,-0.56129 -1.25366,-1.25367z"/><path d="M371.14047,281.85772c0,-0.69238 0.56129,-1.25367 1.25367,-1.25367c0.69238,0 1.25367,0.56129 1.25367,1.25367c0,0.69238 -0.56129,1.25367 -1.25367,1.25367c-0.69238,0 -1.25367,-0.56129 -1.25367,-1.25367z"/><path d="M315.92395,288.13232c0,-0.69238 0.56129,-1.25367 1.25367,-1.25367c0.69238,0 1.25367,0.56129 1.25367,1.25367c0,0.69238 -0.56129,1.25367 -1.25367,1.25367c-0.69238,0 -1.25367,-0.56129 -1.25367,-1.25367z"/><path d="M292.08047,285.62247c0,-0.69238 0.56129,-1.25367 1.25366,-1.25367c0.69238,0 1.25367,0.56129 1.25367,1.25367c0,0.69238 -0.5613,1.25366 -1.25367,1.25366c-0.69238,0 -1.25366,-0.56129 -1.25366,-1.25366z"/><path d="M265.72713,284.36755c0,-0.69238 0.56129,-1.25367 1.25367,-1.25367c0.69238,0 1.25367,0.56129 1.25367,1.25367c0,0.69238 -0.56129,1.25367 -1.25367,1.25367c-0.69238,0 -1.25367,-0.56129 -1.25367,-1.25367z"/><path d="M218.04016,279.34788c0,-0.69238 0.56128,-1.25367 1.25367,-1.25367c0.69239,0 1.25367,0.56129 1.25367,1.25367c0,0.69238 -0.56128,1.25367 -1.25367,1.25367c-0.69239,0 -1.25367,-0.56129 -1.25367,-1.25367z"/><path d="M182.90237,247.97486c0,-0.69237 0.56128,-1.25366 1.25367,-1.25366c0.69239,0 1.25366,0.56129 1.25366,1.25366c0,0.69237 -0.56128,1.25367 -1.25366,1.25367c-0.69239,0 -1.25367,-0.5613 -1.25367,-1.25367z"/><path d="M213.02048,214.092c0,-0.69239 0.56128,-1.25367 1.25366,-1.25367c0.69239,0 1.25367,0.56128 1.25367,1.25367c0,0.69239 -0.56128,1.25366 -1.25367,1.25366c-0.69239,0 -1.25366,-0.56128 -1.25366,-1.25366z"/><path d="M250.66809,231.66089c0,-0.69239 0.56128,-1.25366 1.25366,-1.25366c0.69239,0 1.25367,0.56128 1.25367,1.25366c0,0.69239 -0.56128,1.25367 -1.25367,1.25367c-0.69239,0 -1.25366,-0.56128 -1.25366,-1.25367z"/><path d="M238.11887,249.22978c0,-0.69237 0.56128,-1.25366 1.25367,-1.25366c0.69239,0 1.25367,0.56129 1.25367,1.25366c0,0.69237 -0.56128,1.25367 -1.25367,1.25367c-0.69239,0 -1.25367,-0.56129 -1.25367,-1.25367z"/><path d="M343.53223,236.68058c0,-0.69239 0.56129,-1.25367 1.25367,-1.25367c0.69238,0 1.25367,0.56128 1.25367,1.25367c0,0.69239 -0.56129,1.25366 -1.25367,1.25366c-0.69238,0 -1.25367,-0.56128 -1.25367,-1.25366z"/><path d="M288.3157,266.79867c0,-0.69238 0.56129,-1.25367 1.25367,-1.25367c0.69238,0 1.25367,0.56129 1.25367,1.25367c0,0.69238 -0.56129,1.25366 -1.25367,1.25366c-0.69238,0 -1.25367,-0.56129 -1.25367,-1.25366z"/><path d="M417.57255,242.95517c0,-0.69239 0.56129,-1.25367 1.25367,-1.25367c0.69238,0 1.25367,0.56128 1.25367,1.25367c0,0.69237 -0.56129,1.25366 -1.25367,1.25366c-0.69238,0 -1.25367,-0.56129 -1.25367,-1.25366z"/><path d="M376.16017,264.28882c0,-0.69238 0.56129,-1.25366 1.25366,-1.25366c0.69238,0 1.25367,0.56129 1.25367,1.25366c0,0.69238 -0.56129,1.25367 -1.25367,1.25367c-0.69238,0 -1.25366,-0.56129 -1.25366,-1.25367z"/><path d="M348.55191,263.03391c0,-0.69238 0.56129,-1.25367 1.25367,-1.25367c0.69238,0 1.25367,0.56129 1.25367,1.25367c0,0.69238 -0.56129,1.25367 -1.25367,1.25367c-0.69238,0 -1.25367,-0.56129 -1.25367,-1.25367z"/><path d="M378.67,242.95517c0,-0.69239 0.56129,-1.25367 1.25367,-1.25367c0.69238,0 1.25367,0.56128 1.25367,1.25367c0,0.69237 -0.56129,1.25366 -1.25367,1.25366c-0.69238,0 -1.25367,-0.56129 -1.25367,-1.25366z"/><path d="M300.86492,245.46501c0,-0.69237 0.56129,-1.25367 1.25367,-1.25367c0.69238,0 1.25367,0.56129 1.25367,1.25367c0,0.69237 -0.56129,1.25366 -1.25367,1.25366c-0.69238,0 -1.25367,-0.56129 -1.25367,-1.25366z"/><path d="M161.56873,201.54279c0,-0.69239 0.56128,-1.25366 1.25367,-1.25366c0.69239,0 1.25366,0.56128 1.25366,1.25366c0,0.69239 -0.56128,1.25367 -1.25366,1.25367c-0.69239,0 -1.25367,-0.56128 -1.25367,-1.25367z"/><path d="M73.72428,201.54279c0,-0.69239 0.56128,-1.25366 1.25366,-1.25366c0.69239,0 1.25367,0.56128 1.25367,1.25366c0,0.69239 -0.56128,1.25367 -1.25367,1.25367c-0.69239,0 -1.25366,-0.56128 -1.25366,-1.25367z"/><path d="M59.92015,311.97581c0,-0.69238 0.56129,-1.25367 1.25367,-1.25367c0.69237,0 1.25367,0.56129 1.25367,1.25367c0,0.69238 -0.5613,1.25366 -1.25367,1.25366c-0.69237,0 -1.25367,-0.56129 -1.25367,-1.25366z"/><path d="M64.93984,269.30851c0,-0.69238 0.56129,-1.25367 1.25366,-1.25367c0.69239,0 1.25366,0.56129 1.25366,1.25367c0,0.69238 -0.56128,1.25366 -1.25366,1.25366c-0.69237,0 -1.25366,-0.56129 -1.25366,-1.25366z"/><path d="M52.39063,133.77708c0,-0.69237 0.56128,-1.25367 1.25367,-1.25367c0.69237,0 1.25367,0.56129 1.25367,1.25367c0,0.69237 -0.56129,1.25366 -1.25367,1.25366c-0.69237,0 -1.25367,-0.56129 -1.25367,-1.25366z"/><path d="M66.19476,93.61962c0,-0.69237 0.56128,-1.25367 1.25367,-1.25367c0.69239,0 1.25366,0.5613 1.25366,1.25367c0,0.69237 -0.56128,1.25366 -1.25366,1.25366c-0.69239,0 -1.25367,-0.56129 -1.25367,-1.25366z"/><path d="M90.03825,176.44438c0,-0.69239 0.56128,-1.25366 1.25366,-1.25366c0.69239,0 1.25367,0.56128 1.25367,1.25366c0,0.69239 -0.56128,1.25367 -1.25367,1.25367c-0.69239,0 -1.25366,-0.56128 -1.25366,-1.25367z"/><path d="M172.86301,113.69835c0,-0.69237 0.56128,-1.25366 1.25367,-1.25366c0.69239,0 1.25366,0.56129 1.25366,1.25366c0,0.69237 -0.56128,1.25367 -1.25366,1.25367c-0.69239,0 -1.25367,-0.5613 -1.25367,-1.25367z"/><path d="M135.2154,135.032c0,-0.69237 0.56129,-1.25367 1.25366,-1.25367c0.69237,0 1.25367,0.5613 1.25367,1.25367c0,0.69237 -0.5613,1.25366 -1.25367,1.25366c-0.69237,0 -1.25366,-0.56129 -1.25366,-1.25366z"/><path d="M133.96047,76.05073c0,-0.69239 0.56129,-1.25366 1.25367,-1.25366c0.69237,0 1.25366,0.56128 1.25366,1.25366c0,0.69239 -0.56129,1.25366 -1.25366,1.25366c-0.69237,0 -1.25367,-0.56128 -1.25367,-1.25366z"/><path d="M170.35317,45.93264c0,-0.69237 0.56128,-1.25366 1.25366,-1.25366c0.69239,0 1.25367,0.56129 1.25367,1.25366c0,0.69237 -0.56128,1.25366 -1.25367,1.25366c-0.69239,0 -1.25366,-0.56129 -1.25366,-1.25366z"/><path d="M327.21825,83.58025c0,-0.69239 0.56129,-1.25366 1.25367,-1.25366c0.69238,0 1.25367,0.56128 1.25367,1.25366c0,0.69237 -0.56129,1.25367 -1.25367,1.25367c-0.69238,0 -1.25367,-0.56129 -1.25367,-1.25367z"/><path d="M391.21921,83.58025c0,-0.69239 0.56129,-1.25366 1.25367,-1.25366c0.69238,0 1.25367,0.56128 1.25367,1.25366c0,0.69237 -0.56129,1.25367 -1.25367,1.25367c-0.69238,0 -1.25367,-0.56129 -1.25367,-1.25367z"/><path d="M398.74874,49.6974c0,-0.69237 0.56129,-1.25367 1.25367,-1.25367c0.69238,0 1.25367,0.56129 1.25367,1.25367c0,0.69237 -0.56129,1.25366 -1.25367,1.25366c-0.69238,0 -1.25367,-0.56129 -1.25367,-1.25366z"/><path d="M295.84524,60.99168c0,-0.69239 0.56129,-1.25367 1.25367,-1.25367c0.69238,0 1.25367,0.56128 1.25367,1.25367c0,0.69239 -0.56129,1.25366 -1.25367,1.25366c-0.69238,0 -1.25367,-0.56128 -1.25367,-1.25366z"/><path d="M258.19762,57.22693c0,-0.69239 0.56129,-1.25367 1.25367,-1.25367c0.69238,0 1.25367,0.56128 1.25367,1.25367c0,0.69239 -0.56129,1.25366 -1.25367,1.25366c-0.69238,0 -1.25367,-0.56128 -1.25367,-1.25366z"/><path d="M225.5697,50.95232c0,-0.69237 0.56128,-1.25367 1.25367,-1.25367c0.69239,0 1.25366,0.5613 1.25366,1.25367c0,0.69237 -0.56128,1.25366 -1.25366,1.25366c-0.69239,0 -1.25367,-0.56129 -1.25367,-1.25366z"/><path d="M200.47127,99.89423c0,-0.69237 0.56128,-1.25367 1.25366,-1.25367c0.69239,0 1.25367,0.5613 1.25367,1.25367c0,0.69237 -0.56128,1.25366 -1.25367,1.25366c-0.69239,0 -1.25366,-0.56129 -1.25366,-1.25366z"/><path d="M245.64842,135.032c0,-0.69237 0.56128,-1.25367 1.25366,-1.25367c0.69239,0 1.25367,0.5613 1.25367,1.25367c0,0.69237 -0.56128,1.25366 -1.25367,1.25366c-0.69239,0 -1.25366,-0.56129 -1.25366,-1.25366z"/><path d="M208.00081,161.38533c0,-0.69239 0.56128,-1.25367 1.25367,-1.25367c0.69239,0 1.25366,0.56128 1.25366,1.25367c0,0.69239 -0.56128,1.25366 -1.25366,1.25366c-0.69239,0 -1.25367,-0.56128 -1.25367,-1.25366z"/><path d="M265.72713,141.3066c0,-0.69239 0.56129,-1.25367 1.25367,-1.25367c0.69238,0 1.25367,0.56128 1.25367,1.25367c0,0.69239 -0.56129,1.25367 -1.25367,1.25367c-0.69238,0 -1.25367,-0.56128 -1.25367,-1.25367z"/><path d="M255.68778,173.93454c0,-0.69239 0.56129,-1.25367 1.25367,-1.25367c0.69238,0 1.25367,0.56128 1.25367,1.25367c0,0.69239 -0.56129,1.25367 -1.25367,1.25367c-0.69238,0 -1.25367,-0.56128 -1.25367,-1.25367z"/><path d="M318.43382,157.62057c0,-0.69239 0.56129,-1.25366 1.25367,-1.25366c0.69238,0 1.25367,0.56128 1.25367,1.25366c0,0.69239 -0.56129,1.25367 -1.25367,1.25367c-0.69238,0 -1.25367,-0.56128 -1.25367,-1.25367z"/><path d="M285.80589,191.50343c0,-0.69239 0.56129,-1.25366 1.25367,-1.25366c0.69238,0 1.25366,0.56128 1.25366,1.25366c0,0.69239 -0.56129,1.25367 -1.25366,1.25367c-0.69238,0 -1.25367,-0.56128 -1.25367,-1.25367z"/><path d="M369.88557,156.36565c0,-0.69239 0.56129,-1.25367 1.25367,-1.25367c0.69238,0 1.25366,0.56128 1.25366,1.25367c0,0.69239 -0.56129,1.25367 -1.25366,1.25367c-0.69238,0 -1.25367,-0.56128 -1.25367,-1.25367z"/><path d="M330.98302,206.56248c0,-0.69239 0.56129,-1.25367 1.25367,-1.25367c0.69238,0 1.25367,0.56128 1.25367,1.25367c0,0.69239 -0.56129,1.25366 -1.25367,1.25366c-0.69238,0 -1.25367,-0.56128 -1.25367,-1.25366z"/><path d="M430.12174,168.91486c0,-0.69239 0.56129,-1.25366 1.25367,-1.25366c0.69238,0 1.25367,0.56128 1.25367,1.25366c0,0.69239 -0.56129,1.25367 -1.25367,1.25367c-0.69238,0 -1.25367,-0.56128 -1.25367,-1.25367z"/><path d="M394.98398,202.79771c0,-0.69239 0.56129,-1.25366 1.25367,-1.25366c0.69238,0 1.25366,0.56128 1.25366,1.25366c0,0.69239 -0.56129,1.25367 -1.25366,1.25367c-0.69238,0 -1.25367,-0.56128 -1.25367,-1.25367z"/><path d="M382.43476,178.95423c0,-0.69239 0.56129,-1.25367 1.25366,-1.25367c0.69238,0 1.25367,0.56128 1.25367,1.25367c0,0.69239 -0.56129,1.25366 -1.25367,1.25366c-0.69238,0 -1.25366,-0.56128 -1.25366,-1.25366z"/><path d="M423.84715,220.36661c0,-0.69239 0.56129,-1.25366 1.25367,-1.25366c0.69238,0 1.25367,0.56128 1.25367,1.25366c0,0.69239 -0.56129,1.25367 -1.25367,1.25367c-0.69238,0 -1.25367,-0.56128 -1.25367,-1.25367z"/><path d="M285.80589,216.60184c0,-0.69239 0.56129,-1.25367 1.25367,-1.25367c0.69238,0 1.25366,0.56128 1.25366,1.25367c0,0.69239 -0.56129,1.25366 -1.25366,1.25366c-0.69238,0 -1.25367,-0.56128 -1.25367,-1.25366z"/><path d="M248.15825,197.77804c0,-0.69239 0.56128,-1.25367 1.25367,-1.25367c0.69239,0 1.25366,0.56128 1.25366,1.25367c0,0.69239 -0.56128,1.25367 -1.25366,1.25367c-0.69239,0 -1.25367,-0.56128 -1.25367,-1.25367z"/><path d="M208.00081,183.97391c0,-0.69239 0.56128,-1.25367 1.25367,-1.25367c0.69239,0 1.25366,0.56128 1.25366,1.25367c0,0.69239 -0.56128,1.25366 -1.25366,1.25366c-0.69239,0 -1.25367,-0.56128 -1.25367,-1.25366z"/><path d="M147.76461,155.11074c0,-0.69239 0.56128,-1.25367 1.25367,-1.25367c0.69239,0 1.25367,0.56128 1.25367,1.25367c0,0.69239 -0.56128,1.25366 -1.25367,1.25366c-0.69239,0 -1.25367,-0.56128 -1.25367,-1.25366z"/><path d="M195.4516,135.032c0,-0.69237 0.56128,-1.25367 1.25367,-1.25367c0.69239,0 1.25367,0.5613 1.25367,1.25367c0,0.69237 -0.56128,1.25366 -1.25367,1.25366c-0.69239,0 -1.25367,-0.56129 -1.25367,-1.25366z"/><path d="M258.19762,108.67867c0,-0.69237 0.56129,-1.25366 1.25367,-1.25366c0.69238,0 1.25367,0.56129 1.25367,1.25366c0,0.69237 -0.56129,1.25366 -1.25367,1.25366c-0.69238,0 -1.25367,-0.56129 -1.25367,-1.25366z"/><path d="M105.0973,108.67867c0,-0.69237 0.56129,-1.25366 1.25366,-1.25366c0.69237,0 1.25366,0.56129 1.25366,1.25366c0,0.69237 -0.56129,1.25366 -1.25366,1.25366c-0.69237,0 -1.25366,-0.56129 -1.25366,-1.25366z"/><path d="M149.01952,97.38439c0,-0.69239 0.56128,-1.25366 1.25366,-1.25366c0.69239,0 1.25367,0.56128 1.25367,1.25366c0,0.69239 -0.56128,1.25367 -1.25367,1.25367c-0.69239,0 -1.25366,-0.56128 -1.25366,-1.25367z"/><path d="M162.82365,81.07042c0,-0.69239 0.56128,-1.25366 1.25367,-1.25366c0.69239,0 1.25367,0.56128 1.25367,1.25366c0,0.69239 -0.56128,1.25366 -1.25367,1.25366c-0.69239,0 -1.25367,-0.56128 -1.25367,-1.25366z"/><path d="M216.78524,69.77612c0,-0.69239 0.56128,-1.25366 1.25367,-1.25366c0.69239,0 1.25366,0.56128 1.25366,1.25366c0,0.69239 -0.56128,1.25367 -1.25366,1.25367c-0.69239,0 -1.25367,-0.56128 -1.25367,-1.25367z"/><path d="M249.41317,87.34501c0,-0.69239 0.56128,-1.25366 1.25367,-1.25366c0.69239,0 1.25367,0.56128 1.25367,1.25366c0,0.69239 -0.56128,1.25367 -1.25367,1.25367c-0.69239,0 -1.25367,-0.56128 -1.25367,-1.25367z"/><path d="M288.3157,102.40406c0,-0.69239 0.56128,-1.25366 1.25367,-1.25366c0.69239,0 1.25367,0.56128 1.25367,1.25366c0,0.69239 -0.56128,1.25366 -1.25367,1.25366c-0.69239,0 -1.25367,-0.56128 -1.25367,-1.25366z"/><path d="M327.21825,113.69835c0,-0.69239 0.56128,-1.25366 1.25367,-1.25366c0.69239,0 1.25367,0.56128 1.25367,1.25366c0,0.69239 -0.56128,1.25367 -1.25367,1.25367c-0.69239,0 -1.25367,-0.56128 -1.25367,-1.25367z"/><path d="M348.55191,113.69835c0,-0.69239 0.56128,-1.25366 1.25367,-1.25366c0.69239,0 1.25367,0.56128 1.25367,1.25366c0,0.69239 -0.56128,1.25367 -1.25367,1.25367c-0.69239,0 -1.25367,-0.56128 -1.25367,-1.25367z"/><path d="M377.41509,113.69835c0,-0.69239 0.56128,-1.25366 1.25367,-1.25366c0.69239,0 1.25367,0.56128 1.25367,1.25366c0,0.69239 -0.56128,1.25367 -1.25367,1.25367c-0.69239,0 -1.25367,-0.56128 -1.25367,-1.25367z"/><path d="M393.72906,104.9139c0,-0.69239 0.56128,-1.25366 1.25367,-1.25366c0.69239,0 1.25367,0.56128 1.25367,1.25366c0,0.69239 -0.56128,1.25366 -1.25367,1.25366c-0.69239,0 -1.25367,-0.56128 -1.25367,-1.25366z"/><path d="M411.29794,98.63931c0,-0.69239 0.56128,-1.25366 1.25366,-1.25366c0.69239,0 1.25367,0.56128 1.25367,1.25366c0,0.69239 -0.56128,1.25367 -1.25367,1.25367c-0.69239,0 -1.25366,-0.56128 -1.25366,-1.25367z"/><path d="M426.35698,79.81549c0,-0.69239 0.56128,-1.25367 1.25367,-1.25367c0.69239,0 1.25367,0.56128 1.25367,1.25367c0,0.69239 -0.56128,1.25366 -1.25367,1.25366c-0.69239,0 -1.25367,-0.56128 -1.25367,-1.25366z"/><path d="M398.74874,136.28692c0,-0.69239 0.56128,-1.25366 1.25367,-1.25366c0.69239,0 1.25367,0.56128 1.25367,1.25366c0,0.69239 -0.56128,1.25367 -1.25367,1.25367c-0.69239,0 -1.25367,-0.56128 -1.25367,-1.25367z"/><path d="M425.10206,131.26724c0,-0.69239 0.56128,-1.25366 1.25367,-1.25366c0.69239,0 1.25367,0.56128 1.25367,1.25366c0,0.69239 -0.56128,1.25367 -1.25367,1.25367c-0.69239,0 -1.25367,-0.56128 -1.25367,-1.25367z"/><path d="M122.66619,45.93263c0,-0.69239 0.56128,-1.25367 1.25366,-1.25367c0.69239,0 1.25367,0.56128 1.25367,1.25367c0,0.69239 -0.56128,1.25367 -1.25367,1.25367c-0.69239,0 -1.25366,-0.56128 -1.25366,-1.25367z"/><path d="M137.72523,54.71708c0,-0.69239 0.56128,-1.25366 1.25367,-1.25366c0.69239,0 1.25366,0.56128 1.25366,1.25366c0,0.69239 -0.56128,1.25366 -1.25366,1.25366c-0.69239,0 -1.25367,-0.56128 -1.25367,-1.25366z"/><path d="M157.80397,35.89327c0,-0.69239 0.56128,-1.25366 1.25366,-1.25366c0.69239,0 1.25367,0.56128 1.25367,1.25366c0,0.69239 -0.56128,1.25366 -1.25367,1.25366c-0.69239,0 -1.25366,-0.56128 -1.25366,-1.25366z"/><path d="M200.47127,39.65804c0,-0.69239 0.56128,-1.25366 1.25366,-1.25366c0.69239,0 1.25367,0.56128 1.25367,1.25366c0,0.69239 -0.56128,1.25367 -1.25367,1.25367c-0.69239,0 -1.25366,-0.56128 -1.25366,-1.25367z"/><path d="M195.4516,66.01137c0,-0.69239 0.56128,-1.25366 1.25367,-1.25366c0.69239,0 1.25367,0.56128 1.25367,1.25366c0,0.69239 -0.56128,1.25366 -1.25367,1.25366c-0.69239,0 -1.25367,-0.56128 -1.25367,-1.25366z"/><path d="M185.41223,69.77612c0,-0.69239 0.56128,-1.25366 1.25366,-1.25366c0.69239,0 1.25367,0.56128 1.25367,1.25366c0,0.69239 -0.56128,1.25367 -1.25367,1.25367c-0.69239,0 -1.25366,-0.56128 -1.25366,-1.25367z"/><path d="M278.27635,37.14819c0,-0.69239 0.56128,-1.25367 1.25367,-1.25367c0.69239,0 1.25367,0.56128 1.25367,1.25367c0,0.69239 -0.56128,1.25366 -1.25367,1.25366c-0.69239,0 -1.25367,-0.56128 -1.25367,-1.25366z"/><path d="M323.45349,50.95232c0,-0.69239 0.56128,-1.25367 1.25367,-1.25367c0.69239,0 1.25367,0.56128 1.25367,1.25367c0,0.69239 -0.56128,1.25366 -1.25367,1.25366c-0.69239,0 -1.25367,-0.56128 -1.25367,-1.25366z"/><path d="M348.55191,71.03105c0,-0.69239 0.56128,-1.25367 1.25367,-1.25367c0.69239,0 1.25367,0.56128 1.25367,1.25367c0,0.69239 -0.56128,1.25366 -1.25367,1.25366c-0.69239,0 -1.25367,-0.56128 -1.25367,-1.25366z"/><path d="M356.08144,91.10978c0,-0.69239 0.56128,-1.25366 1.25366,-1.25366c0.69239,0 1.25367,0.56128 1.25367,1.25366c0,0.69239 -0.56128,1.25366 -1.25367,1.25366c-0.69239,0 -1.25366,-0.56128 -1.25366,-1.25366z"/><path d="M377.41509,49.6974c0,-0.69239 0.56128,-1.25367 1.25367,-1.25367c0.69239,0 1.25367,0.56128 1.25367,1.25367c0,0.69239 -0.56128,1.25366 -1.25367,1.25366c-0.69239,0 -1.25367,-0.56128 -1.25367,-1.25366z"/><path d="M351.06175,44.67772c0,-0.69239 0.56128,-1.25367 1.25367,-1.25367c0.69239,0 1.25367,0.56128 1.25367,1.25367c0,0.69239 -0.56128,1.25366 -1.25367,1.25366c-0.69239,0 -1.25367,-0.56128 -1.25367,-1.25366z"/><path d="M426.35698,39.65804c0,-0.69239 0.56128,-1.25366 1.25367,-1.25366c0.69239,0 1.25367,0.56128 1.25367,1.25366c0,0.69239 -0.56128,1.25367 -1.25367,1.25367c-0.69239,0 -1.25367,-0.56128 -1.25367,-1.25367z"/><path d="M48.62587,59.73676c0,-0.69239 0.56128,-1.25366 1.25366,-1.25366c0.69239,0 1.25366,0.56128 1.25366,1.25366c0,0.69239 -0.56128,1.25367 -1.25366,1.25367c-0.69239,0 -1.25366,-0.56128 -1.25366,-1.25367z"/><path d="M49.88079,40.91295c0,-0.69239 0.56128,-1.25366 1.25366,-1.25366c0.69239,0 1.25367,0.56128 1.25367,1.25366c0,0.69239 -0.56128,1.25367 -1.25367,1.25367c-0.69239,0 -1.25366,-0.56128 -1.25366,-1.25367z"/><path d="M102.58746,35.89327c0,-0.69239 0.56128,-1.25366 1.25366,-1.25366c0.69239,0 1.25367,0.56128 1.25367,1.25366c0,0.69239 -0.56128,1.25366 -1.25367,1.25366c-0.69239,0 -1.25366,-0.56128 -1.25366,-1.25366z"/></g></g></g></svg>