<svg version="1.1" xmlns="http://www.w3.org/2000/svg" xmlns:xlink="http://www.w3.org/1999/xlink" width="132.34242" height="131.23986" viewBox="0,0,132.34242,131.23986"><defs><linearGradient x1="253.88919" y1="114.93007" x2="226.65108" y2="245.26957" gradientUnits="userSpaceOnUse" id="color-1"><stop offset="0" stop-color="#00e6ff"/><stop offset="1" stop-color="#00b5ff"/></linearGradient><linearGradient x1="191.15959" y1="242.37665" x2="186.82615" y2="220.45441" gradientUnits="userSpaceOnUse" id="color-2"><stop offset="0" stop-color="#00b5ff"/><stop offset="1" stop-color="#00e6ff"/></linearGradient><linearGradient x1="259.42254" y1="146.7076" x2="279.81606" y2="137.57153" gradientUnits="userSpaceOnUse" id="color-3"><stop offset="0" stop-color="#00b5ff"/><stop offset="1" stop-color="#00e6ff"/></linearGradient></defs><g transform="translate(-173.82879,-114.38007)"><g data-paper-data="{&quot;isPaintingLayer&quot;:true}" fill-rule="nonzero" stroke-linejoin="miter" stroke-miterlimit="10" stroke-dasharray="" stroke-dashoffset="0" style="mix-blend-mode: normal"><g><path d="M199.62818,157.76237c9.4083,-4.26282 11.40906,-5.68337 17.41097,-10.0692c6.00194,-4.3858 7.07671,-5.21264 13.99635,-12.88119c8.14397,-9.0254 14.87036,-20.98466 20.25821,-20.4121c4.83527,0.57802 6.34167,12.04691 10.64861,22.41481c4.18012,10.06267 4.37057,11.22957 9.8259,19.26237c5.45533,8.0328 7.76827,11.85147 16.08537,18.89109c8.5694,7.25319 19.26209,10.8626 18.25094,16.0788c-0.96073,4.43088 -15.46332,8.3796 -26.53634,13.39663c-9.40832,4.26281 -10.4244,4.35302 -16.82011,8.47601c-6.3957,4.123 -6.86061,4.67896 -13.78023,12.34753c-8.14397,9.02545 -16.18219,20.77213 -20.69551,20.3413c-4.76444,-1.01528 -5.90442,-11.97603 -10.21133,-22.34395c-4.18013,-10.06263 -4.6529,-11.65219 -9.89679,-18.82511c-5.24389,-7.17289 -7.70074,-9.58289 -16.01782,-16.62251c-8.5694,-7.25319 -19.26209,-10.86258 -18.25093,-16.07878c0.96069,-4.43089 14.65958,-8.9586 25.7326,-13.97566z" data-paper-data="{&quot;index&quot;:null}" fill="url(#color-1)" stroke="#000000" stroke-width="0" stroke-linecap="round"/><path d="M238.16177,175.34826c-4.07206,-0.32524 -3.74681,-4.39731 -3.74681,-4.39731l0.33516,-4.11783c-0.11485,-3.70919 0.04439,-7.42837 0.33614,-11.12786c0,0 0.32524,-4.07206 4.3973,-3.74681c4.07206,0.32524 3.74682,4.39731 3.74682,4.39731c-0.28731,3.54875 -0.42281,7.11785 -0.31262,10.6765l-0.35869,4.56922c0,0 -0.32524,4.07206 -4.3973,3.74682z" fill="#005d82" stroke="none" stroke-width="0.5" stroke-linecap="butt"/><path d="M257.23697,175.92531c-4.07206,-0.32524 -3.74682,-4.39731 -3.74682,-4.39731l0.33518,-4.11783c-0.11486,-3.7092 0.04441,-7.42837 0.33613,-11.12786c0,0 0.32524,-4.07206 4.3973,-3.74681c4.07207,0.32524 3.74682,4.39731 3.74682,4.39731c-0.28733,3.54875 -0.42281,7.11785 -0.31262,10.6765l-0.35868,4.56922c0,0 -0.32524,4.07206 -4.39731,3.74682z" fill="#005d82" stroke="none" stroke-width="0.5" stroke-linecap="butt"/><path d="M186.82615,220.45441c5.96053,-1.17825 11.76257,2.77407 12.95922,8.82773c1.19665,6.05366 -2.66525,11.91628 -8.62577,13.09452c-5.96052,1.17823 -11.76257,-2.77408 -12.95923,-8.82774c-1.19665,-6.05366 2.66526,-11.91627 8.62578,-13.09451z" fill="url(#color-2)" stroke="none" stroke-width="0" stroke-linecap="butt"/><path d="M230.42059,190.73481c-0.25287,-0.38961 0.41575,-0.7529 0.68245,-1.10908c0.42073,-0.5619 1.17005,-1.30782 1.79511,-1.76661c1.45346,-1.06683 3.38669,-2.50714 5.46571,-3.05379c2.29068,-0.60231 5.00089,-0.57979 7.42386,-0.89941c3.8497,-0.40521 9.38083,0.7451 10.83956,3.62542c1.12514,2.22163 -0.14605,4.87146 -0.29541,7.07722c0,0 -0.0253,0.36274 -0.44618,0.51354c-0.52589,0.33361 -1.21774,0.00352 -1.21774,0.00352c-1.33733,-0.6395 -2.56057,-1.37468 -4.0168,-1.8969c-2.94691,-1.05678 -6.40959,-1.56356 -9.61265,-1.84068c-2.24627,-0.19434 -4.26828,-0.41963 -6.43749,-0.07242l-0.84182,0.11122c0,0 -0.07451,0.00979 -0.18782,0.00979c-1.13611,0.26908 -2.45409,0.37152 -3.15073,-0.70184z" data-paper-data="{&quot;index&quot;:null}" fill="#005d82" stroke="none" stroke-width="0" stroke-linecap="butt"/><path d="M244.08187,144.15329c0,0 -3.00807,1.14356 -5.45475,0.96069c-2.37921,-0.17783 -5.0964,-1.62256 -5.0964,-1.62256" fill="none" stroke="#005d82" stroke-width="5.5" stroke-linecap="round"/><path d="M253.0782,147.32413c0,0 2.90718,-0.93411 5.28449,-0.73263c2.44473,0.20719 5.23864,1.74497 5.23864,1.74497" data-paper-data="{&quot;index&quot;:null}" fill="none" stroke="#005d82" stroke-width="5.5" stroke-linecap="round"/><path d="M279.81606,137.57153c2.48404,5.54489 -0.06748,12.08507 -5.699,14.60793c-5.63153,2.52286 -12.21048,0.07303 -14.69452,-5.47186c-2.48404,-5.54488 0.06749,-12.08507 5.69901,-14.60793c5.63153,-2.52286 12.21048,-0.07302 14.69452,5.47185z" fill="url(#color-3)" stroke="none" stroke-width="0" stroke-linecap="butt"/></g></g></g></svg>