<svg version="1.1" xmlns="http://www.w3.org/2000/svg" xmlns:xlink="http://www.w3.org/1999/xlink" width="397.27409" height="266.69418" viewBox="0,0,397.27409,266.69418"><defs><linearGradient x1="236.54857" y1="117.32789" x2="249.7618" y2="117.32789" gradientUnits="userSpaceOnUse" id="color-1"><stop offset="0" stop-color="#3891ff"/><stop offset="1" stop-color="#9600ff"/></linearGradient><linearGradient x1="236.54856" y1="117.32789" x2="249.7618" y2="117.32789" gradientUnits="userSpaceOnUse" id="color-2"><stop offset="0" stop-color="#2d75ce"/><stop offset="1" stop-color="#7d00d6"/></linearGradient><linearGradient x1="231.46817" y1="117.32789" x2="254.8422" y2="117.32789" gradientUnits="userSpaceOnUse" id="color-3"><stop offset="0" stop-color="#00b5ff"/><stop offset="1" stop-color="#00e6ff"/></linearGradient><linearGradient x1="231.46817" y1="117.32789" x2="254.8422" y2="117.32789" gradientUnits="userSpaceOnUse" id="color-4"><stop offset="0" stop-color="#009edc"/><stop offset="1" stop-color="#00c6dc"/></linearGradient><linearGradient x1="401.15281" y1="150.62032" x2="317.41339" y2="107.4381" gradientUnits="userSpaceOnUse" id="color-5"><stop offset="0" stop-color="#00b5ff"/><stop offset="1" stop-color="#00e6ff"/></linearGradient><linearGradient x1="402.398" y1="110.54863" x2="419.37918" y2="110.54863" gradientUnits="userSpaceOnUse" id="color-6"><stop offset="0" stop-color="#00b5ff"/><stop offset="1" stop-color="#00e6ff"/></linearGradient><linearGradient x1="314.7795" y1="170.76489" x2="331.76068" y2="170.76489" gradientUnits="userSpaceOnUse" id="color-7"><stop offset="0" stop-color="#00b5ff"/><stop offset="1" stop-color="#00e6ff"/></linearGradient></defs><g transform="translate(-41.36297,-46.4029)"><g data-paper-data="{&quot;isPaintingLayer&quot;:true}" fill-rule="nonzero" stroke-linejoin="miter" stroke-miterlimit="10" stroke-dasharray="" stroke-dashoffset="0" style="mix-blend-mode: normal"><path d="M73.10793,146.69411c-5.6541,-29.97772 14.06409,-58.86301 44.04181,-64.51711c29.97772,-5.6541 58.86301,14.06409 64.51711,44.04181c5.6541,29.97772 -14.06409,58.86301 -44.04181,64.51711c-29.97772,5.6541 -58.86301,-14.06409 -64.51711,-44.04181z" fill="#0064ff" stroke="none" stroke-width="0.5" stroke-linecap="butt"/><path d="M137.61442,190.6875c-23.73588,4.47682 -46.78689,-6.95279 -58.16364,-26.78708c0.27473,0.09362 11.55617,5.40269 23.77067,9.44182c7.74193,2.56013 16.50498,4.40251 21.01337,4.74634c5.78619,0.44128 16.02658,0.74196 25.03128,-0.38805c10.00999,-1.25617 18.54831,-3.98692 18.91322,-4.05574c-7.79099,8.55014 -18.3224,14.73367 -30.56488,17.04272z" data-paper-data="{&quot;index&quot;:null}" fill="#003a92" stroke="none" stroke-width="0.5" stroke-linecap="butt"/><path d="M117.14974,82.17699c23.73588,-4.47683 46.78689,6.95279 58.16364,26.78708c-0.27296,-0.09302 -11.00525,-5.9145 -23.14272,-9.93924c-7.82122,-2.59349 -17.08727,-3.90161 -21.64131,-4.24891c-2.91092,-0.222 -14.21046,-0.76415 -24.32892,0.37909c-10.23068,1.15592 -19.26708,3.99898 -19.61558,4.06471c7.791,-8.55014 18.3224,-14.73367 30.56488,-17.04272z" fill="#8ab9ff" stroke="none" stroke-width="0.5" stroke-linecap="butt"/><g stroke="none" stroke-width="0.5" stroke-linecap="butt"><g><path d="M108.07906,114.52939c6.56304,-1.23785 12.88692,3.07906 14.12477,9.6421c1.23785,6.56304 -3.07906,12.88692 -9.6421,14.12477c-6.56304,1.23785 -12.88692,-3.07906 -14.12477,-9.6421c-1.23785,-6.56304 3.07906,-12.88692 9.6421,-14.12477z" data-paper-data="{&quot;index&quot;:null}" fill="#ffffff"/><path d="M115.67173,115.57746c-0.07989,0.01507 -2.7989,-0.63802 -4.94,-0.09587c-1.92608,0.48771 -4.00864,1.26688 -5.15319,1.8183c-0.89179,0.42964 -2.45141,1.3867 -3.82574,2.52609c-2.16829,1.79762 -3.34623,4.77318 -3.39478,4.81417c0.73785,-4.95127 4.52622,-9.11993 9.72273,-10.10004c2.68025,-0.50552 5.32062,-0.08462 7.59098,1.03734z" data-paper-data="{&quot;index&quot;:null}" fill="#003a92"/></g><path d="M106.70769,126.96385c-0.37162,-1.97029 0.92437,-3.86878 2.89465,-4.24039c1.97029,-0.37162 3.86878,0.92437 4.24039,2.89465c0.37162,1.97029 -0.92437,3.86878 -2.89465,4.24039c-1.97029,0.37162 -3.86878,-0.92437 -4.24039,-2.89465z" fill="#0a0710"/></g><g stroke="none" stroke-width="0.5" stroke-linecap="butt"><g><path d="M151.65009,118.93117c1.23785,6.56304 -3.07906,12.88692 -9.6421,14.12477c-6.56304,1.23785 -12.88692,-3.07906 -14.12477,-9.6421c-1.23785,-6.56304 3.07906,-12.88692 9.6421,-14.12477c6.56304,-1.23785 12.88692,3.07906 14.12477,9.6421z" data-paper-data="{&quot;index&quot;:null}" fill="#ffffff"/><path d="M137.52765,109.29967c5.19651,-0.98011 10.24308,1.52218 12.73381,5.86451c-0.06015,-0.02049 -1.80866,-2.23951 -4.48279,-3.1238c-1.69494,-0.56049 -3.94704,-1.10551 -4.93407,-1.18079c-1.26678,-0.09661 -2.79862,-0.19407 -4.77003,0.05332c-2.19149,0.27501 -5.15862,2.10286 -5.23851,2.11793c1.70569,-1.87189 4.01134,-3.22565 6.69159,-3.73117z" data-paper-data="{&quot;index&quot;:null}" fill="#003a92"/></g><path d="M136.09593,122.15982c-0.37162,-1.97029 0.92436,-3.86878 2.89465,-4.24039c1.97029,-0.37162 3.86878,0.92436 4.24039,2.89465c0.37162,1.97029 -0.92436,3.86878 -2.89465,4.24039c-1.97029,0.37162 -3.86878,-0.92436 -4.24039,-2.89465z" fill="#0a0710"/></g><path d="M110.82129,146.38352l33.89464,-6.32044c0,0 -1.46737,19.3274 -14.93641,20.51575c-12.09848,1.06743 -18.95823,-14.19531 -18.95823,-14.19531z" fill="#000000" stroke="#000000" stroke-width="0.5" stroke-linecap="round"/><path d="M257.93251,184.83187v-27.32157h11.56859v27.32157z" fill="#ffca68" stroke="#000000" stroke-width="1" stroke-linecap="butt"/><path d="M219.78078,182.06279v-27.32157h11.56859v27.32157z" fill="#ffca68" stroke="#000000" stroke-width="1" stroke-linecap="butt"/><path d="M312.23418,75.74817c2.07684,2.43092 2.20833,5.42889 0.31384,8.40172c-3.72935,4.52691 -8.66619,11.40351 -16.4605,16.92077c-10.43517,7.38662 -12.652,4.1767 -13.84085,2.78518c-1.02226,-1.19654 5.33093,-6.24289 10.64031,-12.76361c5.4772,-6.72682 9.95083,-14.93057 11.18519,-15.98514c2.43091,-2.07684 6.08516,-1.78982 8.162,0.64109z" data-paper-data="{&quot;index&quot;:null}" fill="#ffca68" stroke="#000000" stroke-width="1" stroke-linecap="butt"/><path d="M186.14023,121.45109c2.51485,-5.29872 5.62876,-13.17043 11.8451,-20.41945c8.32256,-9.70515 11.25424,-7.13161 12.74614,-6.07143c1.28284,0.91162 -3.65041,7.35302 -7.2123,14.97026c-3.67446,7.858 -6.01594,16.90412 -6.95637,18.22751c-1.85206,2.60623 -5.46621,3.21762 -8.07245,1.36555c-2.60623,-1.85206 -3.46375,-4.72779 -2.35012,-8.07245z" fill="#ffca68" stroke="#000000" stroke-width="1" stroke-linecap="butt"/><path d="M194.92105,66.43495c-0.00611,-0.18136 0.06944,-9.77377 1.01261,-13.95781c0.96618,-4.28611 12.32944,-4.88775 15.41394,-5.07401c4.84455,-0.29253 55.38716,-1.46054 75.18699,1.25952c2.45468,0.33722 6.91744,2.07778 7.55832,7.19309c0.47156,3.76389 -2.02254,13.50158 -2.01532,13.71576c0.01232,0.36538 -1.29992,3.42312 -3.76274,3.75891c-14.70956,2.00554 -68.53539,-6.30738 -83.33038,-6.75079c-0.87908,-0.02635 -0.47667,2.09059 -1.16221,3.40332c-0.92918,1.77928 -2.82682,2.90537 -3.00257,2.9113c-2.85311,0.09619 -5.80247,-3.60617 -5.89865,-6.45928z" fill="#ad7000" stroke="#000000" stroke-width="1" stroke-linecap="butt"/><path d="M204.45491,136.76261v-80.95941h80.61819v80.95941z" fill="#ffca68" stroke="#000000" stroke-width="1" stroke-linecap="butt"/><path d="M204.45491,136.76261v-28.28539l-10.33789,-2.70755c0,0 2.66179,-3.89248 4.46311,-5.69381c1.62682,-1.62682 5.3825,-4.39794 5.3825,-4.39794l31.83341,-0.24615c-0.01071,0.16271 -0.01615,0.32686 -0.01615,0.49228c0,4.07818 3.30603,7.38421 7.38421,7.38421c4.07818,0 7.38421,-3.30603 7.38421,-7.38421c0,-0.16542 -0.00543,-0.32957 -0.01615,-0.49228l34.1999,0.00386l5.31176,-3.91009l10.86718,7.77735l-15.83789,15.78316v21.67655z" fill="#ff0000" stroke="#000000" stroke-width="1" stroke-linecap="butt"/><path d="M230.98016,72.17153c0,-3.12661 2.53461,-5.66123 5.66122,-5.66123c3.12661,0 5.66122,2.53461 5.66122,5.66123c0,3.12661 -2.53461,5.66123 -5.66122,5.66123c-3.12661,0 -5.66122,-2.53461 -5.66122,-5.66123z" fill="#ffffff" stroke="#000000" stroke-width="1" stroke-linecap="butt"/><path d="M245.01016,71.67924c0,-3.12661 2.53462,-5.66122 5.66123,-5.66122c3.12661,0 5.66122,2.53461 5.66122,5.66122c0,3.12661 -2.53461,5.66123 -5.66122,5.66123c-3.12661,0 -5.66123,-2.53462 -5.66123,-5.66123z" fill="#ffffff" stroke="#000000" stroke-width="1" stroke-linecap="butt"/><path d="M235.16454,71.80232c0,-1.01954 0.82651,-1.84605 1.84605,-1.84605c1.01954,0 1.84605,0.82651 1.84605,1.84605c0,1.01954 -0.82651,1.84605 -1.84605,1.84605c-1.01954,0 -1.84605,-0.82651 -1.84605,-1.84605z" fill="#000000" stroke="none" stroke-width="0.5" stroke-linecap="butt"/><path d="M248.9484,71.80232c0,-1.01954 0.82651,-1.84605 1.84605,-1.84605c1.01954,0 1.84605,0.82651 1.84605,1.84605c0,1.01954 -0.82651,1.84605 -1.84605,1.84605c-1.01954,0 -1.84605,-0.82651 -1.84605,-1.84605z" fill="#000000" stroke="none" stroke-width="0.5" stroke-linecap="butt"/><path d="M209.95955,144.00037c-6.96778,-1.8758 -4.98716,-8.86268 -4.98716,-8.86268l80.43287,0.05368c0,0 1.56702,7.97755 -10.98684,8.45071c-0.64051,0.02414 -2.03389,0.01176 -2.03389,0.01176l-0.38901,14.19888l-16.52482,0.27034l0.7406,-14.51269l-22.6483,0.03028l0.2394,13.86156l-17.07101,0.14315l-0.63907,-13.62381c0,0 -5.95174,0.02754 -6.13276,-0.02119z" fill="#00b9ff" stroke="#000000" stroke-width="1" stroke-linecap="butt"/><path d="M244.78396,140.22775v-3.57783h1.56321v3.57783z" fill="#005b9a" stroke="none" stroke-width="0" stroke-linecap="butt"/><path d="M239.81845,140.22775v-3.57783h1.56322v3.57783z" fill="#005b9a" stroke="none" stroke-width="0" stroke-linecap="butt"/><path d="M239.48122,142.31209c-0.72955,-0.50347 -0.87187,-1.64164 -0.1839,-2.32961c0.69584,-0.69584 3.00025,-0.12939 2.72593,0.87642c0.03138,0.12154 0.04806,0.24899 0.04806,0.38034c0,0.83795 -0.6793,1.51724 -1.51724,1.51724c-0.20857,0.16149 -0.48315,-0.00139 -0.73773,-0.19111c-0.119,-0.08868 -0.23364,-0.18324 -0.33512,-0.25328z" fill="#ffcc00" stroke="none" stroke-width="0.5" stroke-linecap="butt"/><path d="M244.63065,142.31209c-0.72955,-0.50347 -0.87187,-1.64164 -0.1839,-2.32961c0.69584,-0.69584 3.00025,-0.12939 2.72593,0.87642c0.03138,0.12154 0.04806,0.24899 0.04806,0.38034c0,0.83795 -0.67929,1.51724 -1.51724,1.51724c-0.20857,0.16149 -0.48315,-0.00139 -0.73773,-0.19111c-0.119,-0.08868 -0.23364,-0.18324 -0.33512,-0.25328z" fill="#ffcc00" stroke="none" stroke-width="0.5" stroke-linecap="butt"/><g stroke="#000000" stroke-width="1" stroke-linecap="butt"><path d="M212.67348,189.13014c-0.00001,-2.39356 -0.0001,-4.78713 -0.00027,-7.18069c0.73941,-0.0134 1.47895,-0.02923 2.21883,-0.04727c2.584,-0.06302 5.16768,-0.13365 7.75139,-0.20731c0.15947,-0.00454 0.31894,-0.0091 0.4784,-0.01364c-0.0182,0.78126 -0.03824,1.56262 -0.05828,2.34426c-0.04216,1.64425 -0.13865,3.28532 -0.24718,4.92599c-3.54391,0.07162 -7.44706,0.14472 -10.14289,0.17867z" fill="#00b9ff"/><path d="M212.64207,175.12299c2.62821,-0.01633 6.80238,-0.04816 10.5539,-0.07785c0,0.41112 0,0.82223 0,1.23335c0,1.67877 -0.02794,3.35582 -0.06568,5.03313c-0.1658,0.00473 -0.3316,0.00946 -0.49739,0.01418c-2.58321,0.07365 -5.16638,0.14426 -7.74987,0.20727c-0.7369,0.01797 -1.47345,0.03375 -2.20988,0.04711c-0.00074,-2.15267 -0.01182,-4.30476 -0.03108,-6.45719z" fill="#005b9a"/><path d="M231.37489,188.76883c0,0 -3.76685,0.08528 -8.18806,0.17513c0.10798,-1.63501 0.20377,-3.27044 0.24579,-4.90902c0.02022,-0.78832 0.04042,-1.57634 0.05874,-2.36426c2.30077,-0.0656 4.60154,-0.1312 6.90231,-0.1968c0.34489,-0.00983 0.68991,-0.01746 1.03504,-0.02329z" fill="#005b9a"/><path d="M231.47636,174.97789l-0.0449,6.1034c-0.34955,0.00587 -0.69898,0.01357 -1.04828,0.02353c-2.29445,0.06542 -4.5889,0.13084 -6.88334,0.19626c0.03758,-1.6738 0.06536,-3.34734 0.06536,-5.02259c0,-0.41209 0,-0.82419 0,-1.23628c4.27761,-0.03395 7.91117,-0.06432 7.91117,-0.06432z" fill="#00b9ff"/><path d="M202.55096,182.14188c0,-0.04699 0.00051,-0.09386 0.00152,-0.14062c1.52762,0 3.05522,0 4.58284,0c1.72419,0 3.44618,-0.01598 5.16867,-0.04531c0.00017,2.3929 0.00026,4.78579 0.00027,7.17869c-0.82027,0.00961 -1.51109,0.01506 -2.02211,0.01506c-4.26983,0 -7.7312,-3.13751 -7.7312,-7.00781z" fill="#005b9a"/><path d="M210.28216,175.13406c0.3618,0 1.06025,-0.00326 1.9907,-0.00881c0.01928,2.15385 0.03036,4.30735 0.03108,6.46143c-1.72248,0.02936 -3.44444,0.04537 -5.16862,0.04537c-1.52141,0 -3.04281,0 -4.56422,0c0.28811,-3.6323 3.63038,-6.49798 7.71105,-6.49798z" fill="#00b9ff"/></g><g data-paper-data="{&quot;index&quot;:null}" stroke="#000000" stroke-width="1" stroke-linecap="butt"><path d="M266.22331,188.58226c-0.10853,-1.64067 -0.20502,-3.28174 -0.24718,-4.92599c-0.02004,-0.78165 -0.04008,-1.563 -0.05828,-2.34426c0.15947,0.00454 0.31894,0.0091 0.4784,0.01364c2.58371,0.07366 5.16739,0.14429 7.75139,0.20731c0.73988,0.01805 1.47942,0.03387 2.21883,0.04727c-0.00017,2.39356 -0.00026,4.78713 -0.00027,7.18069c-2.69583,-0.03395 -6.59898,-0.10705 -10.14289,-0.17867z" fill="#00b9ff"/><path d="M276.36652,181.21097c-0.73643,-0.01337 -1.47299,-0.02914 -2.20988,-0.04711c-2.58349,-0.06301 -5.16666,-0.13362 -7.74987,-0.20727c-0.1658,-0.00473 -0.33159,-0.00946 -0.49739,-0.01418c-0.03774,-1.67731 -0.06568,-3.35436 -0.06568,-5.03313c0,-0.41112 0,-0.82223 0,-1.23335c3.75152,0.0297 7.92569,0.06153 10.5539,0.07785c-0.01926,2.15244 -0.03034,4.30452 -0.03108,6.45719z" fill="#005b9a"/><path d="M257.61091,181.08137c0.34512,0.00583 0.69015,0.01346 1.03504,0.02329c2.30077,0.0656 4.60154,0.1312 6.90231,0.1968c0.01832,0.78793 0.03853,1.57595 0.05874,2.36426c0.04202,1.63859 0.13781,3.27401 0.2458,4.90902c-4.42121,-0.08985 -8.18806,-0.17513 -8.18806,-0.17513z" fill="#005b9a"/><path d="M265.47448,174.673c0,0.41209 0,0.82419 0,1.23628c0,1.67526 0.02778,3.34879 0.06536,5.02259c-2.29445,-0.06542 -4.5889,-0.13084 -6.88334,-0.19626c-0.3493,-0.00996 -0.69874,-0.01766 -1.04828,-0.02353l-0.0449,-6.1034c0,0 3.63356,0.03037 7.91117,0.06432z" fill="#00b9ff"/><path d="M278.7575,188.78048c-0.51102,0 -1.20184,-0.00546 -2.02211,-0.01506c0.00001,-2.3929 0.0001,-4.78579 0.00027,-7.17869c1.72249,0.02933 3.44448,0.04531 5.16867,0.04531c1.52762,0 3.05522,0 4.58284,0c0.00101,0.04676 0.00152,0.09364 0.00152,0.14062c0,3.87031 -3.46137,7.00781 -7.7312,7.00781z" fill="#005b9a"/><path d="M286.46855,181.26283c-1.52141,0 -3.04281,0 -4.56422,0c-1.72418,0 -3.44615,-0.01601 -5.16862,-0.04537c0.00072,-2.15408 0.0118,-4.30758 0.03107,-6.46143c0.93045,0.00556 1.6289,0.00881 1.99071,0.00881c4.08068,0 7.42294,2.86569 7.71105,6.49798z" fill="#00b9ff"/></g><path d="M249.88156,83.25137c0,0 -2.56718,1.99624 -6.7632,1.98749c-4.91146,-0.01024 -6.85214,-2.10109 -6.85214,-2.10109" fill="none" stroke="#000000" stroke-width="1.5" stroke-linecap="round"/><g stroke-width="1" stroke-linecap="butt"><path d="M237.27011,110.84129c1.42186,0.5985 4.21188,1.43535 5.84621,1.45202c1.59682,0.0163 4.29264,-0.75021 5.88876,-1.31928c0.69834,-0.24898 0.93071,0.013 0.62437,0.69197c-0.66618,1.47655 -1.55924,4.1342 -1.57585,5.76168c-0.01532,1.5017 0.79607,4.11295 1.43228,5.68603c0.30535,0.75501 0.01713,1.00165 -0.74925,0.65976c-1.52974,-0.68242 -3.95377,-1.37088 -5.39611,-1.3856c-1.66902,-0.01703 -4.49881,0.67883 -6.04214,1.32813c-0.70552,0.29682 -0.9282,0.0982 -0.60384,-0.54875c0.70099,-1.39814 1.31186,-4.16193 1.32925,-5.86586c0.015,-1.46944 -0.69037,-4.3359 -1.34241,-5.93055c-0.24123,-0.58995 -0.01824,-0.78508 0.58875,-0.52958z" data-paper-data="{&quot;index&quot;:null}" fill="url(#color-1)" stroke="url(#color-2)"/><path d="M232.06261,116.84663c1.81403,-0.76096 5.06614,-2.55534 6.53984,-4.02905c1.43988,-1.43988 3.14754,-4.57935 4.05364,-6.54097c0.39644,-0.85826 0.84242,-0.83611 1.18747,0.04885c0.75036,1.92448 2.37402,5.10965 3.84155,6.57718c1.35411,1.35411 4.45661,2.94541 6.45718,3.76979c0.96018,0.39567 0.9276,0.87829 -0.06772,1.27122c-1.98674,0.78432 -4.77707,2.37778 -6.07765,3.67837c-1.50498,1.50498 -3.39654,4.70343 -4.18246,6.68858c-0.35927,0.9075 -0.73892,0.93306 -1.03869,0.06028c-0.64788,-1.88621 -2.62006,-4.90907 -4.15652,-6.44553c-1.32501,-1.32501 -4.56535,-3.24066 -6.59969,-4.06986c-0.75263,-0.30677 -0.73135,-0.68401 0.04306,-1.00886z" data-paper-data="{&quot;index&quot;:null}" fill="url(#color-3)" stroke="url(#color-4)"/></g><path d="M100.21033,266.02436v-76.67187h19.40625c6.69792,0 11.90625,0.83854 15.625,2.51563c3.71875,1.66666 6.33334,4.28646 7.84375,7.85938c1.52084,3.5625 2.28125,8.18229 2.28125,13.85938v27.82813c0,5.73959 -0.76041,10.42709 -2.28125,14.0625c-1.51041,3.625 -4.10937,6.29166 -7.79687,8c-3.6875,1.69791 -8.84896,2.54688 -15.48437,2.54688zM117.16345,254.28998h2.64063c2.59375,0 4.45833,-0.38021 5.59375,-1.14062c1.13541,-0.76041 1.84375,-1.89584 2.125,-3.40625c0.28125,-1.51041 0.42188,-3.40104 0.42188,-5.67187v-33.42187c0,-2.27084 -0.17187,-4.09896 -0.51562,-5.48437c-0.34375,-1.39584 -1.08334,-2.40625 -2.21875,-3.03125c-1.13541,-0.63541 -2.96875,-0.95312 -5.5,-0.95312h-2.54687z" fill="#004cad" stroke="none" stroke-width="1" stroke-linecap="butt"/><path d="M374.80794,266.02436v-76.67187h21.10938c5.17708,0 9.65625,0.56771 13.4375,1.70313c3.79167,1.13541 6.74479,3.17188 8.85938,6.10938c2.11458,2.9375 3.17188,7.08334 3.17188,12.4375c0,3.15625 -0.25521,5.96875 -0.76562,8.4375c-0.5,2.45834 -1.42708,4.58854 -2.78125,6.39063c-1.35417,1.79166 -3.29687,3.28646 -5.82812,4.48438l10.51563,37.10938h-17.51562l-8.42187,-34.35937h-4.82812v34.35938zM391.76108,221.91498h4.73438c2.39583,0 4.25521,-0.42709 5.57813,-1.28125c1.32292,-0.85416 2.25,-2.08334 2.78125,-3.6875c0.54167,-1.61459 0.8125,-3.55729 0.8125,-5.82812c0,-3.28125 -0.59896,-5.83334 -1.79687,-7.65625c-1.19792,-1.83334 -3.40625,-2.75 -6.625,-2.75h-5.48437z" fill="#004cad" stroke="none" stroke-width="1" stroke-linecap="butt"/><path d="M224.39923,266.02436v-76.67187h25.75c4.60416,0 8.39063,0.86979 11.35938,2.60938c2.96875,1.72916 5.17708,4.25 6.625,7.5625c1.45833,3.3125 2.1875,7.33854 2.1875,12.07813c0,5.92709 -0.97917,10.45313 -2.9375,13.57813c-1.95833,3.125 -4.60937,5.28646 -7.95312,6.48438c-3.34375,1.19791 -7.09896,1.79688 -11.26563,1.79688h-6.8125v32.5625zM241.35236,221.63373h5.67188c2.08334,0 3.66146,-0.38021 4.73438,-1.14062c1.07291,-0.76041 1.78125,-1.89584 2.125,-3.40625c0.35417,-1.51041 0.53125,-3.4375 0.53125,-5.78125c0,-1.94791 -0.14583,-3.66146 -0.4375,-5.14062c-0.28125,-1.48959 -0.95834,-2.67709 -2.03125,-3.5625c-1.07291,-0.88541 -2.74479,-1.32812 -5.01562,-1.32812h-5.57812z" fill="#004cad" stroke="none" stroke-width="1" stroke-linecap="butt"/><path d="M278.44793,189.35248h25.74997c4.60417,0 8.39063,0.86979 11.35938,2.60938c2.96875,1.72916 5.17708,4.25 6.625,7.5625c1.45833,3.3125 2.1875,7.33854 2.1875,12.07813c0,5.92709 -0.97917,10.45313 -2.9375,13.57813c-1.95833,3.125 -4.60937,5.28646 -7.95312,6.48438c-3.34375,1.19791 -7.09896,1.79688 -11.26562,1.79688h-6.8125v32.5625h-16.9531zM295.40103,221.63373h5.67188c2.08333,0 3.66146,-0.38021 4.73438,-1.14062c1.07292,-0.76041 1.78125,-1.89584 2.125,-3.40625c0.35417,-1.51041 0.53125,-3.4375 0.53125,-5.78125c0,-1.94791 -0.14583,-3.66146 -0.4375,-5.14062c-0.28125,-1.48959 -0.95833,-2.67709 -2.03125,-3.5625c-1.07292,-0.88541 -2.74479,-1.32812 -5.01562,-1.32812h-5.57812z" fill="#004cad" stroke="none" stroke-width="1" stroke-linecap="butt"/><path d="M45.64675,266.22436l14.875,-41.26562c0,0 -5.09291,-22.1327 -15.20312,-42.80625c-1.82565,-3.73311 -3.95566,-6.71394 -3.95566,-6.71394c0,0 3.19432,-0.54394 5.04079,0.07291c0.21527,0.07191 0.83756,0.94693 1.01857,1.04831c1.86771,1.04599 1.23808,2.98524 3.77977,4.99784c5.35077,4.23694 5.53408,3.80138 11.51653,11.59488c2.70455,3.52329 8.02187,17.13438 8.02187,17.13438l6.8125,-20.73437h14.10938l-13.45312,39.84375l14.96875,36.82813h-15.90625l-9.375,-22.90625l-8.23437,22.90625z" fill="#004cad" stroke="none" stroke-width="1" stroke-linecap="butt"/><path d="M332.49661,266.02436v-76.67187h34.46875v11.54688h-17.51562v19.03125h13.34375v11.73438h-13.34375v22.90625h17.70313v11.45313z" fill="#004cad" stroke="none" stroke-width="1" stroke-linecap="butt"/><path d="M151.99966,266.02436v-10.21875l18.73438,-55h-17.89062v-11.45312h34.54688v9.5625l-19.01562,55.65625h19.20313v11.45313z" fill="#004cad" stroke="none" stroke-width="1" stroke-linecap="butt"/><path d="M196.01706,266.02436v-76.67187h16.9375v76.67188z" fill="#004cad" stroke="none" stroke-width="1" stroke-linecap="butt"/><path d="M105.21033,266.02436v-76.67187h19.40625c6.69792,0 11.90625,0.83854 15.625,2.51563c3.71875,1.66666 6.33334,4.28646 7.84375,7.85938c1.52084,3.5625 2.28125,8.18229 2.28125,13.85938v27.82813c0,5.73959 -0.76041,10.42709 -2.28125,14.0625c-1.51041,3.625 -4.10937,6.29166 -7.79687,8c-3.6875,1.69791 -8.84896,2.54688 -15.48437,2.54688zM122.16345,254.28998h2.64063c2.59375,0 4.45833,-0.38021 5.59375,-1.14062c1.13541,-0.76041 1.84375,-1.89584 2.125,-3.40625c0.28125,-1.51041 0.42188,-3.40104 0.42188,-5.67187v-33.42187c0,-2.27084 -0.17187,-4.09896 -0.51562,-5.48437c-0.34375,-1.39584 -1.08334,-2.40625 -2.21875,-3.03125c-1.13541,-0.63541 -2.96875,-0.95312 -5.5,-0.95312h-2.54687z" fill="#0096ff" stroke="none" stroke-width="1" stroke-linecap="butt"/><path d="M379.80794,266.02436v-76.67187h21.10938c5.17708,0 9.65625,0.56771 13.4375,1.70313c3.79167,1.13541 6.74479,3.17188 8.85938,6.10938c2.11458,2.9375 3.17188,7.08334 3.17188,12.4375c0,3.15625 -0.25521,5.96875 -0.76562,8.4375c-0.5,2.45834 -1.42708,4.58854 -2.78125,6.39063c-1.35417,1.79166 -3.29687,3.28646 -5.82812,4.48438l10.51563,37.10938h-17.51562l-8.42187,-34.35937h-4.82812v34.35938zM396.76108,221.91498h4.73438c2.39583,0 4.25521,-0.42709 5.57813,-1.28125c1.32292,-0.85416 2.25,-2.08334 2.78125,-3.6875c0.54167,-1.61459 0.8125,-3.55729 0.8125,-5.82812c0,-3.28125 -0.59896,-5.83334 -1.79687,-7.65625c-1.19792,-1.83334 -3.40625,-2.75 -6.625,-2.75h-5.48437z" fill="#0096ff" stroke="none" stroke-width="1" stroke-linecap="butt"/><path d="M229.39922,266.02436v-76.67187h25.75c4.60417,0 8.39063,0.86979 11.35938,2.60938c2.96875,1.72916 5.17708,4.25 6.625,7.5625c1.45833,3.3125 2.1875,7.33854 2.1875,12.07813c0,5.92709 -0.97917,10.45313 -2.9375,13.57813c-1.95833,3.125 -4.60937,5.28646 -7.95312,6.48438c-3.34375,1.19791 -7.09896,1.79688 -11.26562,1.79688h-6.8125v32.5625zM246.35235,221.63373h5.67188c2.08334,0 3.66146,-0.38021 4.73438,-1.14062c1.07292,-0.76041 1.78125,-1.89584 2.125,-3.40625c0.35417,-1.51041 0.53125,-3.4375 0.53125,-5.78125c0,-1.94791 -0.14583,-3.66146 -0.4375,-5.14062c-0.28125,-1.48959 -0.95833,-2.67709 -2.03125,-3.5625c-1.07292,-0.88541 -2.74479,-1.32812 -5.01563,-1.32812h-5.57812z" fill="#0096ff" stroke="none" stroke-width="1" stroke-linecap="butt"/><path d="M283.44793,189.35248h25.74997c4.60417,0 8.39063,0.86979 11.35938,2.60938c2.96875,1.72916 5.17708,4.25 6.625,7.5625c1.45833,3.3125 2.1875,7.33854 2.1875,12.07813c0,5.92709 -0.97917,10.45313 -2.9375,13.57813c-1.95833,3.125 -4.60937,5.28646 -7.95312,6.48438c-3.34375,1.19791 -7.09896,1.79688 -11.26562,1.79688h-6.8125v32.5625h-16.9531zM300.40103,221.63373h5.67188c2.08333,0 3.66146,-0.38021 4.73438,-1.14062c1.07292,-0.76041 1.78125,-1.89584 2.125,-3.40625c0.35417,-1.51041 0.53125,-3.4375 0.53125,-5.78125c0,-1.94791 -0.14583,-3.66146 -0.4375,-5.14062c-0.28125,-1.48959 -0.95833,-2.67709 -2.03125,-3.5625c-1.07292,-0.88541 -2.74479,-1.32812 -5.01562,-1.32812h-5.57812z" fill="#0096ff" stroke="none" stroke-width="1" stroke-linecap="butt"/><path d="M50.64675,266.22436l14.875,-41.26562c0,0 -5.09291,-22.1327 -15.20312,-42.80625c-1.82565,-3.73311 -3.95566,-6.71394 -3.95566,-6.71394c0,0 4.93812,2.23826 9.83913,6.11906c5.35077,4.23694 5.53408,3.80138 11.51653,11.59488c2.70455,3.52329 8.02187,17.13438 8.02187,17.13438l6.8125,-20.73437h14.10938l-13.45312,39.84375l14.96875,36.82813h-15.90625l-9.375,-22.90625l-8.23437,22.90625z" fill="#0096ff" stroke="none" stroke-width="1" stroke-linecap="butt"/><path d="M337.49661,266.02436v-76.67187h34.46875v11.54688h-17.51562v19.03125h13.34375v11.73438h-13.34375v22.90625h17.70313v11.45313z" fill="#0096ff" stroke="none" stroke-width="1" stroke-linecap="butt"/><path d="M156.99966,266.02436v-10.21875l18.73438,-55h-17.89062v-11.45312h34.54688v9.5625l-19.01562,55.65625h19.20313v11.45313z" fill="#0096ff" stroke="none" stroke-width="1" stroke-linecap="butt"/><path d="M201.01706,266.02436v-76.67187h16.9375v76.67188z" fill="#0096ff" stroke="none" stroke-width="1" stroke-linecap="butt"/><path d="M429.61123,292.03891c0.86311,1.76491 3.21092,2.9214 5.12221,4.0964c2.13145,1.31034 3.79499,2.54061 3.79499,2.54061c0,0 -4.73078,-1.4017 -8.88482,-3.03907c-2.61603,-1.03114 -4.93371,-2.22537 -5.91584,-3.00306c-5.35077,-4.23694 -5.53408,-3.80137 -11.51653,-11.59488c-1.48842,-1.93901 -3.95569,-6.87084 -5.70497,-10.9703c-0.7362,-1.72528 -1.05059,-2.95104 -1.50034,-4.06486c1.35492,0.03304 2.76876,-0.07342 4.1076,-0.08956c3.3786,-0.04073 6.65621,-0.07126 10.07619,0.00841c2.4991,7.64975 5.97509,17.02415 10.42153,26.11631z" data-paper-data="{&quot;index&quot;:null}" fill="#004cad" stroke="none" stroke-width="1" stroke-linecap="butt"/><path d="M434.6814,292.03891c1.82565,3.73311 3.95566,6.71393 3.95566,6.71393c0,0 -4.93812,-2.23825 -9.83913,-6.11905c-5.35077,-4.23694 -5.53408,-3.80137 -11.51653,-11.59488c-1.88912,-2.46101 -5.0061,-9.51582 -6.72297,-13.66701c-0.14711,-0.35571 -0.27692,-0.6901 -0.3972,-0.99846c-0.06628,-0.16991 -0.11212,-0.33191 -0.17392,-0.48522c0.01408,0.0004 4.79103,-1.07547 9.44275,-1.08397c3.16855,-0.00579 6.13469,1.04029 8.0622,1.08241c2.50174,7.67031 2.72081,17.01532 7.18914,26.15225z" data-paper-data="{&quot;index&quot;:null}" fill="#0096ff" stroke="none" stroke-width="1" stroke-linecap="butt"/><path d="M172.05863,313.09708c-1.94717,0 -3.5092,-0.41725 -4.68606,-1.25176c-1.15546,-0.8345 -2.00066,-2.04346 -2.5356,-3.62688c-0.51354,-1.58342 -0.77031,-3.4878 -0.77031,-5.71314v-10.36709c0,-2.26814 0.23538,-4.20462 0.70612,-5.80943c0.47074,-1.60482 1.31594,-2.82447 2.53561,-3.65897c1.21966,-0.83451 2.91006,-1.25176 5.07121,-1.25176c1.94717,0 3.5092,0.32097 4.68606,0.96289c1.19826,0.64192 2.06486,1.6369 2.5998,2.98495c0.53494,1.34805 0.8024,3.03845 0.8024,5.07121v1.15546h-4.04413v-0.96289c0,-1.34805 -0.09629,-2.45002 -0.28887,-3.30591c-0.17118,-0.8559 -0.53494,-1.48713 -1.09127,-1.89368c-0.53494,-0.42795 -1.39084,-0.64192 -2.5677,-0.64192c-1.28385,0 -2.21464,0.28887 -2.79238,0.8666c-0.57773,0.57773 -0.94149,1.38014 -1.09127,2.40722c-0.12839,1.00568 -0.19258,2.15045 -0.19258,3.4343v11.49047c0,1.47643 0.10699,2.71748 0.32096,3.72317c0.23538,0.98428 0.65263,1.7225 1.25176,2.21465c0.62053,0.47075 1.48713,0.70612 2.5998,0.70612c1.13407,0 2.00067,-0.26747 2.5998,-0.80241c0.62053,-0.53494 1.04847,-1.32664 1.28385,-2.37512c0.23538,-1.04848 0.35306,-2.34303 0.35306,-3.88365v-2.15045h-3.94785v-3.08124h7.86359v15.37412h-2.72818l-0.41725,-3.56269c-0.42795,1.15546 -1.08058,2.10765 -1.95788,2.85657c-0.8559,0.72751 -2.04346,1.09127 -3.56268,1.09127zM192.25412,312.71193l6.57974,-31.0371h4.17252l6.64393,31.0371h-4.10832l-1.41224,-7.83149h-6.32296l-1.50853,7.83149zM198.38451,301.79919h5.1675l-2.5998,-13.99398zM221.4898,312.71193l0.57774,-31.0371h4.23671l5.48846,25.16349l5.52056,-25.16349h4.20462l0.57773,31.0371h-3.4664l-0.35306,-22.53159l-5.26379,22.53159h-2.43931l-5.2317,-22.53159l-0.32097,22.53159zM255.62309,312.71193v-31.0371h12.0361v3.20963h-7.7031v10.27081h6.25878v3.08124h-6.25878v11.36208h7.7994v3.11334zM287.31444,313.06499c-1.776,0 -3.26313,-0.38515 -4.46139,-1.15546c-1.17687,-0.77031 -2.07556,-1.82949 -2.69609,-3.17754c-0.62053,-1.34805 -0.93079,-2.38582 -1.01638,-4.18321l5.80942,-1.54062c0.08559,1.09127 -1.77599,2.12905 -1.51922,3.15613c0.27817,1.02708 0.71681,1.86158 1.31594,2.50351c0.62053,0.64193 1.47643,0.96289 2.5677,0.96289c1.13407,0 1.98996,-0.31026 2.5677,-0.93079c0.57774,-0.62053 0.8666,-1.51923 0.8666,-2.69609c0,-1.41224 -0.32097,-2.5463 -0.96289,-3.4022c-0.64193,-0.8559 -1.45503,-1.7118 -2.43932,-2.5677l-5.1996,-4.58977c-1.02708,-0.8987 -1.78669,-1.87228 -2.27884,-2.92076c-0.47075,-1.06987 -0.70612,-2.38583 -0.70612,-3.94785c0,-2.26814 0.65263,-4.02274 1.95788,-5.26379c1.30525,-1.26245 3.08125,-1.89368 5.32799,-1.89368c1.21966,0 2.28953,0.16048 3.20963,0.48145c0.94149,0.29957 1.7225,0.78101 2.34303,1.44433c0.64193,0.66332 1.14476,1.50853 1.50852,2.53561c0.36376,1.00568 0.97359,2.64315 1.10198,3.9912l-4.17252,1.1549c-0.08559,-1.02708 -0.09629,-2.5891 -0.33166,-3.445c-0.21398,-0.8559 -0.60983,-1.54062 -1.18757,-2.05416c-0.57774,-0.53494 -1.40153,-0.80241 -2.47141,-0.80241c-1.06988,0 -1.90438,0.28887 -2.50351,0.8666c-0.59913,0.57773 -0.8987,1.43364 -0.8987,2.56771c0,0.94149 0.14979,1.72249 0.44935,2.34302c0.32097,0.59913 0.84521,1.21966 1.57272,1.86158l5.23169,4.58977c1.17687,1.02708 2.21465,2.25744 3.11334,3.69107c0.89869,1.41224 1.34805,3.08125 1.34805,5.00702c0,1.54062 -0.32096,2.86727 -0.96289,3.97994c-0.64193,1.11267 -1.51923,1.96857 -2.6319,2.5677c-1.11267,0.57774 -2.39652,0.8666 -3.85155,0.8666z" fill="#004cad" stroke="none" stroke-width="1" stroke-linecap="square"/><path d="M174.11485,313.09708c-1.94717,0 -3.5092,-0.41725 -4.68606,-1.25176c-1.15546,-0.8345 -2.00066,-2.04346 -2.53561,-3.62688c-0.51354,-1.58342 -0.77031,-3.4878 -0.77031,-5.71314v-10.36709c0,-2.26814 0.23538,-4.20462 0.70612,-5.80943c0.47074,-1.60482 1.31594,-2.82447 2.5356,-3.65897c1.21966,-0.83451 2.91006,-1.25176 5.07121,-1.25176c1.94717,0 3.5092,0.32097 4.68606,0.96289c1.19826,0.64192 2.06486,1.6369 2.5998,2.98495c0.53494,1.34805 0.8024,3.03845 0.8024,5.07121v1.15546h-4.04413v-0.96289c0,-1.34805 -0.09629,-2.45002 -0.28887,-3.30591c-0.17118,-0.8559 -0.53494,-1.48713 -1.09127,-1.89368c-0.53494,-0.42795 -1.39084,-0.64192 -2.5677,-0.64192c-1.28385,0 -2.21464,0.28887 -2.79237,0.8666c-0.57773,0.57773 -0.94149,1.38014 -1.09128,2.40722c-0.12839,1.00568 -0.19257,2.15045 -0.19257,3.4343v11.49047c0,1.47643 0.10698,2.71748 0.32096,3.72317c0.23538,0.98428 0.65263,1.7225 1.25176,2.21465c0.62053,0.47075 1.48713,0.70612 2.5998,0.70612c1.13407,0 2.00067,-0.26747 2.5998,-0.80241c0.62053,-0.53494 1.04847,-1.32664 1.28385,-2.37512c0.23538,-1.04848 0.35306,-2.34303 0.35306,-3.88365v-2.15045h-3.94785v-3.08124h7.86359v15.37412h-2.72818l-0.41725,-3.56269c-0.42795,1.15546 -1.08058,2.10765 -1.95788,2.85657c-0.8559,0.72751 -2.04346,1.09127 -3.56268,1.09127zM194.31034,312.71193l6.57974,-31.0371h4.17252l6.64393,31.0371h-4.10833l-1.41223,-7.83149h-6.32297l-1.50852,7.83149zM200.44073,301.79919h5.16751l-2.5998,-13.99398zM223.54602,312.71193l0.57774,-31.0371h4.23671l5.48846,25.16349l5.52056,-25.16349h4.20461l0.57773,31.0371h-3.4664l-0.35306,-22.53159l-5.26379,22.53159h-2.43931l-5.2317,-22.53159l-0.32097,22.53159zM257.67929,312.71193v-31.0371h12.0361v3.20963h-7.7031v10.27081h6.25878v3.08124h-6.25878v11.36208h7.7994v3.11334zM289.37066,313.06499c-1.776,0 -3.26313,-0.38515 -4.46139,-1.15546c-1.17687,-0.77031 -2.07556,-1.82949 -2.69609,-3.17754c-0.62053,-1.34805 -0.97358,-2.92076 -1.05917,-4.71815l3.81946,-1.02708c0.08559,1.09127 0.25677,2.15045 0.51354,3.17753c0.27817,1.02708 0.71682,1.86158 1.31595,2.50351c0.62053,0.64193 1.47643,0.96289 2.5677,0.96289c1.13407,0 1.98996,-0.31026 2.5677,-0.93079c0.57774,-0.62053 0.8666,-1.51923 0.8666,-2.69609c0,-1.41224 -0.32097,-2.5463 -0.96289,-3.4022c-0.64193,-0.8559 -1.45503,-1.7118 -2.43932,-2.5677l-5.1996,-4.58977c-1.02708,-0.8987 -1.78669,-1.87228 -2.27884,-2.92076c-0.47075,-1.06987 -0.70612,-2.38583 -0.70612,-3.94785c0,-2.26814 0.65263,-4.02274 1.95788,-5.26379c1.30525,-1.26245 3.08125,-1.89368 5.32799,-1.89368c1.21966,0 2.28953,0.16048 3.20963,0.48145c0.94149,0.29957 1.7225,0.78101 2.34303,1.44433c0.64193,0.66332 1.14476,1.50853 1.50852,2.53561c0.36376,1.00568 0.60983,2.18254 0.73822,3.53059l-3.65897,0.99499c-0.08559,-1.02708 -0.24607,-1.96858 -0.48145,-2.82448c-0.21398,-0.8559 -0.60983,-1.54062 -1.18757,-2.05416c-0.57774,-0.53494 -1.40153,-0.80241 -2.47141,-0.80241c-1.06988,0 -1.90438,0.28887 -2.50351,0.8666c-0.59913,0.57773 -0.8987,1.43364 -0.8987,2.56771c0,0.94149 0.14979,1.72249 0.44935,2.34302c0.32097,0.59913 0.84521,1.21966 1.57272,1.86158l5.23169,4.58977c1.17687,1.02708 2.21465,2.25744 3.11334,3.69107c0.89869,1.41224 1.34804,3.08125 1.34804,5.00702c0,1.54062 -0.32096,2.86727 -0.96289,3.97994c-0.64193,1.11267 -1.51923,1.96857 -2.6319,2.5677c-1.11267,0.57774 -2.39652,0.8666 -3.85155,0.8666z" fill="#0096ff" stroke="none" stroke-width="1" stroke-linecap="square"/><path d="M327.25287,113.59279c6.95595,-3.63622 8.41323,-4.79949 12.7795,-8.38349c4.36628,-3.58397 5.14639,-4.25722 10.06867,-10.37105c5.7932,-7.19559 10.38552,-16.55652 14.49776,-16.35234c3.69322,0.23194 5.3262,8.86904 9.03691,16.55116c3.60144,7.45596 3.79579,8.33315 8.278,14.19455c4.48222,5.8614 6.40021,8.65981 13.01122,13.6454c6.81154,5.13686 15.07836,7.41841 14.53407,11.41917c-0.53958,3.40277 -11.374,7.01837 -19.56076,11.29795c-6.95598,3.63622 -7.72301,3.74808 -12.39929,7.14949c-4.67627,3.40141 -5.00524,3.84309 -9.9275,9.95693c-5.7932,7.19562 -11.38989,16.45133 -14.83256,16.31731c-3.65818,-0.56671 -4.99143,-8.83396 -8.70211,-16.5161c-3.60144,-7.45593 -4.02806,-8.64174 -8.3131,-13.85978c-4.28504,-5.21802 -6.25204,-6.9415 -12.86303,-11.92711c-6.81154,-5.13686 -15.07836,-7.41841 -14.53407,-11.41917c0.53955,-3.40277 10.73947,-7.42331 18.92622,-11.70291z" data-paper-data="{&quot;index&quot;:null}" fill="url(#color-5)" stroke="#000000" stroke-width="0" stroke-linecap="round"/><path d="M354.25157,123.11187c-3.10028,-0.15657 -2.94371,-3.25685 -2.94371,-3.25685l0.16309,-3.13527c-0.16965,-2.81488 -0.13133,-5.64343 0.00807,-8.45998c0,0 0.15657,-3.10028 3.25685,-2.94371c3.10028,0.15657 2.94371,3.25685 2.94371,3.25685c-0.13939,2.70194 -0.16301,5.41597 -0.00024,8.1166l-0.17092,3.47865c0,0 -0.15657,3.10028 -3.25685,2.94371z" fill="#005d82" stroke="none" stroke-width="3.5" stroke-linecap="butt"/><path d="M368.09331,123.54932c-3.10028,-0.15657 -2.94371,-3.25685 -2.94371,-3.25685l0.1631,-3.13527c-0.16966,-2.81489 -0.13133,-5.64343 0.00806,-8.45998c0,0 0.15657,-3.10028 3.25685,-2.94371c3.10028,0.15657 2.94371,3.25685 2.94371,3.25685c-0.1394,2.70194 -0.16301,5.41597 -0.00024,8.1166l-0.17092,3.47865c0,0 -0.15657,3.10028 -3.25685,2.94371z" fill="#005d82" stroke="none" stroke-width="3.5" stroke-linecap="butt"/><path d="M419.37918,110.54863c0,4.61709 -3.80136,8.35997 -8.49059,8.35997c-4.68923,0 -8.49059,-3.74289 -8.49059,-8.35997c0,-4.61707 3.80137,-8.35997 8.49059,-8.35997c4.68923,0 8.49059,3.74289 8.49059,8.35997z" fill="url(#color-6)" stroke="none" stroke-width="3.5" stroke-linecap="butt"/><path d="M331.76068,170.76489c0,4.61709 -3.80136,8.35996 -8.49059,8.35996c-4.68923,0 -8.49059,-3.74289 -8.49059,-8.35996c0,-4.61707 3.80137,-8.35997 8.49059,-8.35997c4.68923,0 8.49059,3.7429 8.49059,8.35997z" fill="url(#color-7)" stroke="none" stroke-width="3.5" stroke-linecap="butt"/><path d="M370.44248,131.09413c0.22505,0.41295 -0.2919,0.88621 -0.48626,1.31227c-0.30661,0.67216 -0.86698,1.58303 -1.34357,2.1593c-1.10823,1.33999 -2.58107,3.14622 -4.22118,3.96291c-1.8071,0.89983 -3.98635,1.13876 -5.91558,1.73395c-3.07101,0.83042 -7.58044,0.07756 -8.91416,-3.01549c-1.02873,-2.38572 -0.15572,-5.486 -0.15933,-7.97812c0,0 0,-0.40991 0.32979,-0.62032c0.40392,-0.42598 0.97841,-0.12267 0.97841,-0.12267c1.11056,0.58791 2.13481,1.29447 3.33434,1.73907c2.42746,0.89973 5.23855,1.13141 7.82815,1.13043c1.81606,-0.00069 3.45361,0.05523 5.17738,-0.54622l0.67028,-0.20699c0,0 0.05932,-0.01827 0.15037,-0.02931c0.89792,-0.41298 1.95134,-0.65654 2.57136,0.48117z" fill="#005d82" stroke="none" stroke-width="0" stroke-linecap="butt"/></g></g></svg>